<?xml version="1.0" encoding="UTF-8" standalone="no"?> <!-- Created with Vectornator for iOS (http://vectornator.io/) --><!DOCTYPE svg PUBLIC "-//W3C//DTD SVG 1.1//EN" "http://www.w3.org/Graphics/SVG/1.1/DTD/svg11.dtd">
<svg height="100%" style="fill-rule:nonzero;clip-rule:evenodd;stroke-linecap:round;stroke-linejoin:round;" xmlns:xlink="http://www.w3.org/1999/xlink" xmlns="http://www.w3.org/2000/svg" xml:space="preserve" width="100%" xmlns:vectornator="http://vectornator.io" version="1.1" viewBox="0 0 232.358 51.3335">
<metadata>
<vectornator:setting key="DimensionsVisible" value="1"/>
<vectornator:setting key="PencilOnly" value="0"/>
<vectornator:setting key="SnapToPoints" value="0"/>
<vectornator:setting key="OutlineMode" value="0"/>
<vectornator:setting key="CMYKEnabledKey" value="0"/>
<vectornator:setting key="RulersVisible" value="1"/>
<vectornator:setting key="SnapToEdges" value="0"/>
<vectornator:setting key="GuidesVisible" value="1"/>
<vectornator:setting key="DisplayWhiteBackground" value="0"/>
<vectornator:setting key="doHistoryDisabled" value="0"/>
<vectornator:setting key="SnapToGuides" value="1"/>
<vectornator:setting key="TimeLapseWatermarkDisabled" value="0"/>
<vectornator:setting key="Units" value="Points"/>
<vectornator:setting key="DynamicGuides" value="0"/>
<vectornator:setting key="IsolateActiveLayer" value="0"/>
<vectornator:setting key="SnapToGrid" value="0"/>
</metadata>
<defs/>
<g id="Untitled" vectornator:layerName="Untitled">
<g opacity="1">
<g opacity="1">
<path d="M61.2921+25.8056C60.8921+25.6056+60.4921+25.5056+59.8921+25.5056C59.1921+25.5056+58.7921+25.6056+58.3921+25.9056C58.0921+26.1056+57.8921+26.4056+57.8921+26.8056C57.8921+27.4056+58.2921+27.8056+59.1921+28.0056L61.6921+28.7056C62.5921+29.0056+63.3921+29.4056+63.7921+30.0056C64.1921+30.6056+64.4921+31.3056+64.4921+32.1056C64.4921+32.8056+64.2921+33.5056+63.8921+34.0056C63.4921+34.5056+62.9921+35.0056+62.1921+35.3056C61.3921+35.6056+60.5921+35.7056+59.6921+35.7056C58.5921+35.7056+57.5921+35.5056+56.7921+35.1056C55.8921+34.7056+55.2921+34.2056+54.8921+33.6056C54.8921+33.5056+54.7921+33.5056+54.7921+33.4056C54.7921+33.3056+54.8921+33.2056+54.9921+33.1056L56.1921+32.3056C56.2921+32.2056+56.3921+32.2056+56.4921+32.2056C56.5921+32.2056+56.6921+32.2056+56.6921+32.3056C57.0921+32.8056+57.4921+33.2056+57.8921+33.4056C58.2921+33.6056+58.7921+33.7056+59.4921+33.7056C60.1921+33.7056+60.7921+33.6056+61.1921+33.4056C61.5921+33.2056+61.7921+32.8056+61.7921+32.4056C61.7921+32.1056+61.6921+31.9056+61.4921+31.7056C61.2921+31.5056+60.9921+31.3056+60.4921+31.2056L58.0921+30.5056C57.1921+30.2056+56.4921+29.8056+55.9921+29.2056C55.4921+28.6056+55.1921+27.9056+55.1921+27.1056C55.1921+26.4056+55.3921+25.8056+55.7921+25.3056C56.1921+24.8056+56.6921+24.3056+57.3921+24.0056C58.0921+23.7056+58.8921+23.5056+59.7921+23.5056C60.6921+23.5056+61.4921+23.7056+62.2921+24.0056C62.9921+24.3056+63.5921+24.7056+63.9921+25.2056C64.0921+25.3056+64.0921+25.4056+64.0921+25.4056C64.0921+25.5056+64.0921+25.5056+63.9921+25.6056L62.6921+26.6056C62.5921+26.6056+62.5921+26.7056+62.5921+26.7056C62.4921+26.7056+62.4921+26.6056+62.2921+26.5056C61.9921+26.2056+61.6921+26.0056+61.2921+25.8056Z" opacity="1" fill="#2a57a3"/>
<path d="M78.6921+23.7056C78.8921+23.7056+78.9921+23.8056+78.9921+24.0056L78.9921+35.2056C78.9921+35.3056+78.9921+35.4056+78.8921+35.5056C78.7921+35.6056+78.6921+35.6056+78.5921+35.6056L76.5921+35.6056C76.4921+35.6056+76.3921+35.6056+76.2921+35.5056C76.1921+35.4056+76.1921+35.4056+76.1921+35.2056L76.1921+24.1056C76.1921+23.9056+76.2921+23.8056+76.4921+23.8056L78.6921+23.8056L78.6921+23.7056Z" opacity="1" fill="#2a57a3"/>
<path d="M91.1921+35.5056C91.0921+35.4056+91.0921+35.3056+91.0921+35.2056L91.0921+24.1056C91.0921+23.9056+91.1921+23.8056+91.3921+23.8056L94.6921+23.8056C94.7921+23.8056+94.8921+23.8056+94.9921+23.8056C95.0921+23.8056+95.0921+23.9056+95.0921+24.0056L97.4921+30.7056C97.4921+30.8056+97.5921+30.8056+97.5921+30.8056C97.5921+30.8056+97.6921+30.8056+97.6921+30.7056L99.9921+24.1056C100.092+23.9056+100.192+23.7056+100.392+23.7056L103.792+23.7056C103.992+23.7056+103.992+23.8056+103.992+24.0056L103.992+35.2056C103.992+35.3056+103.992+35.4056+103.892+35.5056C103.792+35.6056+103.692+35.6056+103.592+35.6056L101.592+35.6056C101.492+35.6056+101.392+35.6056+101.292+35.5056C101.192+35.4056+101.192+35.4056+101.192+35.3056L101.192+27.3056C101.192+27.2056+101.192+27.2056+101.192+27.2056C101.192+27.2056+101.092+27.2056+101.092+27.3056L98.2921+35.3056C98.1921+35.5056+98.0921+35.6056+97.9921+35.6056L96.6921+35.6056C96.4921+35.6056+96.3921+35.5056+96.2921+35.3056L93.5921+27.5056C93.5921+27.4056+93.4921+27.4056+93.4921+27.4056C93.4921+27.4056+93.3921+27.4056+93.3921+27.5056L93.3921+35.4056C93.3921+35.5056+93.3921+35.6056+93.2921+35.6056C93.2921+35.6056+93.1921+35.7056+93.0921+35.7056L91.4921+35.7056C91.3921+35.6056+91.2921+35.6056+91.1921+35.5056Z" opacity="1" fill="#2a57a3"/>
<path d="M124.792+30.1056C123.992+30.7056+122.992+31.1056+121.692+31.1056L119.292+31.1056C119.192+31.1056+119.092+31.2056+119.092+31.3056L119.092+35.3056C119.092+35.5056+118.992+35.7056+118.692+35.7056L116.692+35.7056C116.592+35.7056+116.492+35.7056+116.392+35.6056C116.392+35.5056+116.292+35.5056+116.292+35.4056L116.292+24.1056C116.292+23.9056+116.392+23.8056+116.592+23.8056L121.392+23.8056C122.292+23.8056+123.092+23.9056+123.792+24.2056C124.492+24.5056+125.092+24.9056+125.492+25.4056C125.892+26.0056+126.092+26.6056+126.092+27.4056C125.992+28.6056+125.592+29.5056+124.792+30.1056ZM122.592+26.2056C122.192+25.9056+121.792+25.8056+121.192+25.8056L119.392+25.8056C119.292+25.8056+119.192+25.8056+119.192+25.9056C119.192+25.9056+119.092+26.0056+119.092+26.1056L119.092+28.8056C119.092+28.9056+119.092+29.0056+119.092+29.0056C119.092+29.0056+119.192+29.1056+119.292+29.1056L121.292+29.1056C121.892+29.1056+122.292+29.0056+122.592+28.7056C122.892+28.4056+123.092+28.0056+123.092+27.5056C123.092+26.9056+122.892+26.4056+122.592+26.2056Z" opacity="1" fill="#2a57a3"/>
<path d="M137.892+23.7056L140.192+23.7056C140.392+23.7056+140.492+23.8056+140.492+24.0056L140.492+33.3056C140.492+33.4056+140.492+33.4056+140.492+33.5056L140.592+33.5056L145.692+33.5056C145.892+33.5056+145.992+33.6056+145.992+33.7056L145.992+35.2056C145.992+35.3056+145.992+35.4056+145.892+35.4056C145.792+35.5056+145.792+35.5056+145.692+35.5056L137.992+35.5056C137.892+35.5056+137.792+35.5056+137.692+35.4056C137.592+35.3056+137.592+35.3056+137.592+35.1056L137.592+24.1056C137.592+23.8056+137.692+23.7056+137.892+23.7056Z" opacity="1" fill="#2a57a3"/>
<path d="M157.792+23.7056L165.892+23.7056C166.092+23.7056+166.092+23.8056+166.092+24.0056L166.092+25.4056C166.092+25.6056+165.992+25.7056+165.792+25.7056L160.692+25.7056C160.492+25.7056+160.392+25.8056+160.392+26.0056L160.392+28.3056C160.392+28.5056+160.492+28.6056+160.592+28.6056L163.992+28.6056C164.192+28.6056+164.292+28.7056+164.292+28.9056L164.292+30.4056C164.292+30.5056+164.192+30.6056+163.992+30.6056L160.592+30.6056C160.492+30.6056+160.392+30.7056+160.392+30.8056L160.392+33.3056C160.392+33.4056+160.392+33.4056+160.392+33.5056L160.492+33.5056L165.992+33.5056C166.192+33.5056+166.292+33.6056+166.292+33.7056L166.292+35.2056C166.292+35.4056+166.192+35.5056+165.992+35.5056L157.892+35.5056C157.792+35.5056+157.692+35.5056+157.592+35.4056C157.492+35.3056+157.492+35.3056+157.492+35.1056L157.492+24.1056C157.592+23.8056+157.692+23.7056+157.792+23.7056Z" opacity="1" fill="#2a57a3"/>
</g>
<g opacity="1">
<path d="M180.492+23.7056C180.692+23.7056+180.792+23.8056+180.792+24.0056L180.792+35.2056C180.792+35.3056+180.792+35.4056+180.692+35.5056C180.592+35.6056+180.492+35.6056+180.392+35.6056L178.392+35.6056C178.292+35.6056+178.192+35.6056+178.092+35.5056C177.992+35.4056+177.992+35.4056+177.992+35.2056L177.992+24.1056C177.992+23.9056+178.092+23.8056+178.292+23.8056L180.492+23.8056L180.492+23.7056Z" opacity="1" fill="#000000"/>
<path d="M192.292+24.0056C192.292+23.9056+192.292+23.8056+192.392+23.8056C192.492+23.8056+192.492+23.7056+192.592+23.7056L201.792+23.7056C201.992+23.7056+202.092+23.8056+202.092+24.0056L202.092+25.5056C202.092+25.7056+201.992+25.7056+201.792+25.7056L198.792+25.7056C198.692+25.7056+198.592+25.8056+198.592+25.9056L198.592+35.3056C198.592+35.5056+198.492+35.6056+198.292+35.6056L195.992+35.6056C195.792+35.6056+195.792+35.5056+195.792+35.3056L195.792+25.9056C195.792+25.8056+195.792+25.8056+195.792+25.7056L195.692+25.7056L192.592+25.7056C192.392+25.7056+192.292+25.6056+192.292+25.5056C192.292+25.5056+192.292+24.0056+192.292+24.0056Z" opacity="1" fill="#000000"/>
<path d="M223.992+35.4056C223.992+35.5056+223.892+35.6056+223.792+35.6056L221.392+35.6056C221.192+35.6056+220.992+35.5056+220.892+35.3056L218.292+30.3056C218.292+30.2056+218.192+30.2056+218.192+30.2056C218.192+30.2056+218.092+30.3056+217.992+30.4056L216.592+32.1056C216.492+32.2056+216.492+32.3056+216.492+32.4056L216.492+35.2056C216.492+35.3056+216.492+35.4056+216.392+35.5056C216.292+35.6056+216.192+35.6056+216.092+35.6056L214.092+35.6056C213.992+35.6056+213.892+35.6056+213.792+35.5056C213.692+35.5056+213.692+35.4056+213.692+35.3056L213.692+24.1056C213.692+23.9056+213.792+23.8056+213.992+23.8056L216.292+23.8056C216.492+23.8056+216.492+23.9056+216.492+24.1056L216.492+28.9056C216.492+29.0056+216.492+29.1056+216.592+29.1056C216.592+29.1056+216.692+29.1056+216.692+29.0056L220.592+24.1056C220.692+24.0056+220.692+23.9056+220.792+23.9056C220.892+23.9056+220.992+23.8056+221.092+23.8056L222.992+23.8056C223.092+23.8056+223.192+23.8056+223.192+23.9056C223.292+23.9056+223.292+24.0056+223.292+24.0056C223.292+24.1056+223.292+24.1056+223.192+24.2056L220.092+27.8056C219.992+27.9056+219.992+27.9056+219.992+28.0056C219.992+28.1056+219.992+28.1056+219.992+28.2056L223.792+35.3056C223.992+35.3056+223.992+35.4056+223.992+35.4056Z" opacity="1" fill="#000000"/>
</g>
<path d="M9.19212+17.5056C7.69212+20.1056+8.59212+23.3056+11.0921+24.8056L29.6921+35.8056C32.2921+37.3056+35.4921+36.4056+36.9921+33.9056C38.4921+31.3056+37.5921+28.1056+35.0921+26.6056L16.5921+15.6056C13.9921+14.0056+10.6921+14.9056+9.19212+17.5056Z" opacity="1" fill="#2a57a3"/>
<path d="M9.09212+22.8056C10.5921+25.4056+13.8921+26.3056+16.3921+24.7056L35.0921+13.9056C37.6921+12.4056+38.5921+9.10556+36.9921+6.60556C35.3921+4.10556+32.1921+3.10556+29.6921+4.70556L11.0921+15.5056C8.49212+17.0056+7.59212+20.2056+9.09212+22.8056Z" opacity="1" fill="#f37726"/>
<path d="M37.1921+28.6056C35.6921+26.0056+32.3921+25.1056+29.8921+26.7056L11.0921+37.4056C8.49212+38.9056+7.59212+42.2056+9.19212+44.7056C10.6921+47.3056+13.9921+48.2056+16.4921+46.6056L35.1921+35.8056C37.7921+34.5056+38.6921+31.1056+37.1921+28.6056Z" opacity="1" fill="#f37726"/>
</g>
</g>
</svg>
